<svg fill="#000000" xmlns="http://www.w3.org/2000/svg" viewBox="0 0 24 24">
    <path d="M 12 3 C 7.0414839 3 3 7.0414839 3 12 C 3 17.4 6.1425781 22.513672 6.1425781 
    22.513672 L 7.8574219 21.486328 C 7.8574219 21.486328 5 16.6 5 12 C 5 8.1225161 8.1225161 5 12 5 C
     15.877484 5 19 8.1225161 19 12 C 19 12.56503 18.56503 13 18 13 C 17.43497 13 17 12.56503 17 12 C 17 
     9.2504839 14.749516 7 12 7 C 9.2504839 7 7 9.2504839 7 12 C 7 18.666667 13.552734 21.894531 13.552734
      21.894531 L 14.447266 20.105469 C 14.447266 20.105469 9 17.333333 9 12 C 9 10.331516 10.331516 9 12 
      9 C 13.668484 9 15 10.331516 15 12 C 15 13.64497 16.35503 15 18 15 C 19.64497 15 21 13.64497 21 12 C 21
       7.0414839 16.958516 3 12 3 z M 11 11 C 11 12.722222 11.552197 14.928875 13.111328 16.771484 C 14.670459 
       18.614093 17.261905 20 21 20 L 21 18 C 17.738095 18 15.829541 16.885907 14.638672 15.478516 C 13.447803
        14.071125 13 12.277778 13 11 L 11 11 z" />
</svg>